<svg xmlns="http://www.w3.org/2000/svg" viewBox="0 0 900 680" role="img" aria-label="학생 노트 스케치">
  <defs>
    <filter id="shadow" x="-20%" y="-20%" width="140%" height="150%">
      <feDropShadow dx="0" dy="28" stdDeviation="28" flood-color="#00d8ff" flood-opacity=".18"/>
      <feDropShadow dx="0" dy="14" stdDeviation="18" flood-color="#000000" flood-opacity=".55"/>
    </filter>
    <linearGradient id="paper" x1="0" y1="0" x2="1" y2="1">
      <stop offset="0" stop-color="#ffffff"/>
      <stop offset=".72" stop-color="#f3f5f7"/>
      <stop offset="1" stop-color="#dfe5ec"/>
    </linearGradient>
  </defs>
  <rect width="900" height="680" fill="none"/>
  <g filter="url(#shadow)" transform="translate(126 58) rotate(8 324 286)">
    <rect x="0" y="0" width="620" height="530" rx="34" fill="url(#paper)" stroke="#f7fbff" stroke-width="8"/>
    <path d="M92 0v530" stroke="#d8e0e8" stroke-width="2"/>
    <g fill="#d0d8e1">
      <circle cx="46" cy="70" r="13"/><circle cx="46" cy="128" r="13"/><circle cx="46" cy="186" r="13"/>
      <circle cx="46" cy="244" r="13"/><circle cx="46" cy="302" r="13"/><circle cx="46" cy="360" r="13"/>
      <circle cx="46" cy="418" r="13"/><circle cx="46" cy="476" r="13"/>
    </g>
    <g stroke="#d7dee6" stroke-width="2">
      <path d="M130 72h390M130 130h390M130 188h390M130 246h390M130 304h390M130 362h390M130 420h390"/>
    </g>
    <g fill="none" stroke="#1b2430" stroke-linecap="round" stroke-linejoin="round">
      <path d="M306 146c-32 2-58 21-71 50-15 32-10 75 17 98 26 22 66 21 93 1 33-24 43-70 28-106-12-29-37-45-67-43z" stroke-width="7"/>
      <path d="M252 164c18-42 77-64 114-31 13 12 20 31 20 50" stroke-width="8"/>
      <path d="M256 156c-29 9-46 29-50 59" stroke-width="7"/>
      <path d="M237 226c14 4 29 2 42-5M322 218c15 7 32 8 50 2" stroke-width="5"/>
      <path d="M276 247c22 16 48 16 74-3" stroke-width="5"/>
      <path d="M240 315c-30 28-49 67-56 119M360 310c35 23 62 61 74 112" stroke-width="8"/>
      <path d="M205 394c49 28 130 28 190-4" stroke-width="8"/>
      <path d="M222 430c21 16 49 25 82 25 30 0 57-8 80-23" stroke-width="6"/>
      <path d="M206 391l-52 56M398 388l48 48" stroke-width="8"/>
      <path d="M150 446l-44 44M446 436l42 36" stroke-width="7"/>
    </g>
    <path d="M156 392c42 16 101 23 162 9" fill="none" stroke="#1e7cff" stroke-width="7" stroke-linecap="round"/>
    <path d="M154 413c53 18 126 17 190-3" fill="none" stroke="#00e5e5" stroke-width="5" stroke-linecap="round"/>
    <g transform="translate(126 286)">
      <path d="M0 80c70-28 150-43 244-35" fill="none" stroke="#12dfe7" stroke-width="5" stroke-linecap="round"/>
      <path d="M36 108c58-30 133-42 224-31" fill="none" stroke="#286dff" stroke-width="4" stroke-linecap="round"/>
    </g>
  </g>
  <g opacity=".48">
    <path d="M108 90h128M74 126h205M666 102h110M688 130h72" stroke="#00e6ff" stroke-width="2"/>
    <path d="M120 526h160M628 536h162" stroke="#ff2a85" stroke-width="2"/>
  </g>
</svg>
